<?xml version="1.0" standalone="no"?><!DOCTYPE svg PUBLIC "-//W3C//DTD SVG 1.1//EN" "http://www.w3.org/Graphics/SVG/1.1/DTD/svg11.dtd"><svg t="1615871210950" class="icon" viewBox="0 0 1024 1024" version="1.1" xmlns="http://www.w3.org/2000/svg" p-id="1609" xmlns:xlink="http://www.w3.org/1999/xlink" width="200" height="200"><defs><style type="text/css"></style></defs><path d="M989.873231 897.220923C1012.913231 920.300308 1012.913231 957.715692 989.873231 980.755692 966.793846 1003.835077 929.378462 1003.835077 906.299077 980.755692L655.655385 730.112C655.025231 729.481846 654.788923 728.576 654.198154 727.906462 586.929231 781.469538 501.897846 813.686154 409.225846 813.686154 191.704615 813.686154 15.379692 637.361231 15.379692 419.84 15.379692 202.318769 191.704615 25.993846 409.225846 25.993846 626.747077 25.993846 803.072 202.318769 803.072 419.84 803.072 502.665846 777.353846 579.465846 733.676308 642.875077 735.448615 644.292923 737.575385 644.962462 739.229538 646.577231L989.873231 897.220923ZM409.225846 104.763077C235.224615 104.763077 94.148923 245.799385 94.148923 419.84 94.148923 593.841231 235.224615 734.916923 409.225846 734.916923 583.227077 734.916923 724.302769 593.841231 724.302769 419.84 724.302769 245.799385 583.227077 104.763077 409.225846 104.763077Z" p-id="1610"></path></svg>